<?xml version="1.0" standalone="no"?><!DOCTYPE svg PUBLIC "-//W3C//DTD SVG 1.1//EN" "http://www.w3.org/Graphics/SVG/1.1/DTD/svg11.dtd"><svg t="1598684665412" class="icon" viewBox="0 0 1024 1024" version="1.1" xmlns="http://www.w3.org/2000/svg" p-id="4819" xmlns:xlink="http://www.w3.org/1999/xlink" width="200" height="200"><defs><style type="text/css"></style></defs><path d="M512 64C264.64 64 64 264.576 64 512c0 247.36 200.64 448 448 448 247.424 0 448-200.64 448-448C960 264.576 759.424 64 512 64zM699.648 555.52l-188.544 0c-0.256 0-0.512-0.128-0.768-0.128-0.32 0-0.512 0.128-0.768 0.128C499.392 555.584 490.304 551.36 483.136 544.96c-0.768-0.64-1.728-1.024-2.432-1.664-0.832-0.832-1.28-1.984-1.984-2.816-6.208-7.168-10.304-16-10.304-25.984 0-0.256 0.128-0.448 0.128-0.704 0-0.256-0.128-0.512-0.128-0.768L468.416 260.352c0-23.552 18.432-42.688 41.216-42.624C532.288 217.664 550.656 236.8 550.656 260.288l0.064 212.992 148.864 0c23.552 0 42.688 18.432 42.624 41.216C742.272 537.152 723.136 555.52 699.648 555.52z" p-id="4820" fill="#e4dcdd"></path></svg>