<?xml version="1.0" standalone="no"?><!DOCTYPE svg PUBLIC "-//W3C//DTD SVG 1.1//EN" "http://www.w3.org/Graphics/SVG/1.1/DTD/svg11.dtd"><svg t="1598684607352" class="icon" viewBox="0 0 1024 1024" version="1.1" xmlns="http://www.w3.org/2000/svg" p-id="3079" xmlns:xlink="http://www.w3.org/1999/xlink" width="200" height="200"><defs><style type="text/css"></style></defs><path d="M416.704 500.864l121.664-81.104A95.632 95.632 0 0 0 512 416a95.968 95.968 0 0 0-95.296 84.864zM933.12 268.08a23.984 23.984 0 1 0-26.24-40.16v-0.016l-0.288 0.192L74.864 771.92a24 24 0 1 0 26.256 40.16v0.016l0.288-0.192L933.12 268.08zM151.28 677.824L160 672l166.544-111.024c-4.128-15.664-6.544-32-6.544-48.976 0-106.048 85.968-192 192-192 43.872 0 84.192 14.88 116.528 39.648L736 288l8.832-5.52c-42.352-21.072-86.64-37.872-132.928-47.936-62.096-13.504-124.576-14.064-186.992-2.64-56.784 10.384-111.504 32-162.72 58.784-80.176 41.92-153.376 99.696-217.184 164.48-11.808 11.984-23.552 24.224-34.288 37.248-14.288 17.328-14.288 37.872 0 55.216 32.672 39.616 71.52 74.848 111.04 107.056 9.664 7.872 19.536 15.568 29.52 23.136z m872.672-159.76c-0.016-0.448-0.064-0.864-0.096-1.296a8.16 8.16 0 0 0-0.08-0.656c0-0.32-0.064-0.624-0.128-0.928-0.032-0.368-0.064-0.736-0.128-1.088-0.032-0.048-0.032-0.096-0.032-0.144a39.488 39.488 0 0 0-10.704-21.536c-32.672-39.616-71.536-74.88-111.04-107.072a1007.568 1007.568 0 0 0-33.088-25.888l-169.216 111.328c2.928 13.296 4.56 27.056 4.56 41.216 0 106.032-85.968 192-192 192-41.84 0-80.416-13.536-111.952-36.256L272 752l-1.44 1.44c44.8 23.024 91.824 41.296 141.088 52 62.096 13.504 124.608 14.096 187.008 2.656 56.768-10.4 111.488-32 162.736-58.768 80.176-41.936 153.376-99.696 217.184-164.48 11.792-12 23.536-24.224 34.304-37.248 5.696-5.872 9.44-13.456 10.688-21.568l0.032-0.128a12.592 12.592 0 0 0 0.128-1.088c0.064-0.304 0.096-0.624 0.144-0.928l0.064-0.656 0.096-1.28c0.032-0.656 0.048-1.296 0.048-1.952a26.8 26.8 0 0 1-0.128-1.936z m-418.176 14.336l-112.16 73.808a96 96 0 0 0 112.16-73.808z" fill="#e4dcdd" p-id="3080"></path></svg>